<?xml version="1.0" encoding="UTF-8"?>
<svg fill="#fff" width="100pt" height="100pt" version="1.1" viewBox="0 0 100 100" xmlns="http://www.w3.org/2000/svg">
 <g>
  <path d="m68.496 81.883c-2.3047 1.3086-4.6094 2.6172-6.9141 3.9258-3.6719 2.0781-7.332 4.1719-11.008 6.25-0.83984 0.48047-1.6719 0.94531-2.5078 1.4258h2.9609c-3.8789-2.2578-7.7539-4.5117-11.633-6.7773-2.2578-1.3086-4.5117-2.625-6.7656-3.9336-0.46875-0.27344-0.92969-0.53906-1.3984-0.8125-0.64453-0.38281-1.2891-0.77344-1.9062-1.1914-0.48828-0.32031-0.95703-0.66406-1.4258-1.0156-0.16406-0.125-0.59375-0.48047 0.125 0.10938-0.11719-0.085937-0.22266-0.17578-0.34375-0.27344-0.26563-0.21484-0.52734-0.42969-0.78125-0.64453-0.98438-0.83984-1.9336-1.7383-2.8125-2.6875-0.46094-0.48828-0.89844-0.99609-1.3281-1.5039-0.21484-0.25391-0.42187-0.52734-0.625-0.78125 0.67188 0.82031-0.078124-0.10938-0.23437-0.32031-1.543-2.1172-2.832-4.4141-3.8477-6.8281 0.097657 0.23438 0.19531 0.46875 0.29297 0.70312-1.1523-2.7539-1.9336-5.6328-2.3359-8.5938 0.039063 0.26562 0.070313 0.51562 0.10938 0.78125-0.30469-2.2578-0.30469-4.5-0.30469-6.7773v-8.3984-11.125-9.9023c0-1.6328 0.046875-3.2734 0-4.9141v-0.070312c-0.97656 0.97656-1.9531 1.9531-2.9297 2.9297 6.5234 0 13.117-1.1328 19.25-3.3789 3.1719-1.1641 6.2695-2.5781 9.1992-4.2773 2.4805-1.4375 4.7969-3.0859 7.0391-4.8516 1.2305-0.96875 2.4688-1.9336 3.7031-2.8984h-4.1406c3.1523 2.4688 6.2578 5.0312 9.6875 7.1289 5.5938 3.418 11.844 5.8789 18.273 7.1562 3.6914 0.73437 7.4688 1.1328 11.23 1.1328l-2.9297-2.9297v4.0156 9.4219 11.094 8.9062c0 1.7969 0.039063 3.6016-0.085937 5.3906-0.046875 0.70312-0.125 1.3984-0.21484 2.0898 0.039063-0.26562 0.070313-0.51562 0.10938-0.78125-0.41016 2.9766-1.2031 5.8984-2.3633 8.6719 0.097656-0.23438 0.19531-0.46875 0.29297-0.70312-1.1016 2.5977-2.5078 5.0469-4.2188 7.2969-0.39062 0.51562 0.35938-0.46094 0.070312-0.085937-0.11719 0.14844-0.23438 0.29297-0.35156 0.4375-0.22266 0.27344-0.46094 0.54688-0.68359 0.82031-0.46875 0.53906-0.95703 1.0625-1.4531 1.5742-0.99609 1.0078-2.0508 1.9414-3.1523 2.8203-0.35156 0.28125 0.24219-0.1875 0.25391-0.19531-0.085938 0.078125-0.19531 0.14844-0.28125 0.21484-0.15625 0.11719-0.3125 0.23438-0.46875 0.34375-0.33203 0.24219-0.67188 0.48047-1.0156 0.70312-0.71094 0.47266-1.4141 0.90234-2.1367 1.3086-1.3281 0.76172-1.9062 2.6875-1.0547 4.0039 0.86719 1.3477 2.5859 1.8672 4.0039 1.0547 3.5078-2 6.7305-4.5898 9.375-7.6367 2.7539-3.1523 4.9023-6.6797 6.5039-10.539 1.5312-3.6914 2.3828-7.6367 2.6484-11.633 0.078125-1.1719 0.070313-2.3516 0.070313-3.5352v-11.387-14.992c0-2.8516 0.039062-5.7109 0-8.5742v-0.125c0-1.582-1.3359-2.9297-2.9297-2.9297-2.4141 0-4.8359-0.16406-7.2266-0.48828 0.26562 0.039063 0.51562 0.070313 0.78125 0.10938-4.6953-0.64453-9.2969-1.9062-13.672-3.7383 0.23438 0.097656 0.46875 0.19531 0.70312 0.29297-3.2227-1.3672-6.3086-3.0273-9.1992-4.9922-0.73438-0.48828-1.4453-1.0078-2.1484-1.5312-0.17578-0.13672-0.35156-0.26563-0.52734-0.39844 0.085937 0.070312 0.50781 0.39062 0.19531 0.14844-0.058593-0.046876-0.11719-0.085938-0.17578-0.13672-0.67188-0.52734-1.3477-1.0625-2.0312-1.5938-0.58594-0.46094-1.1641-0.91797-1.7461-1.375-0.60547-0.48047-1.25-0.89844-2.0703-0.85938-0.82812 0.039062-1.4258 0.35156-2.0703 0.85938-1.2109 0.94531-2.4141 1.8945-3.625 2.8438-0.1875 0.14844-0.82812 0.61719-0.13672 0.10938-0.71094 0.51562-1.4062 1.0547-2.1289 1.5625-1.4375 0.99609-2.9297 1.9219-4.4531 2.7812-1.7188 0.95703-3.4766 1.8164-5.2812 2.5781 0.23438-0.097657 0.46875-0.19531 0.70312-0.29297-4.375 1.8359-8.9766 3.0938-13.672 3.7383 0.26562-0.039062 0.51562-0.070312 0.78125-0.10938-2.3906 0.32031-4.8047 0.48828-7.2266 0.48828-1.582 0-2.9297 1.3359-2.9297 2.9297v6.3984 13.586 12.695 3.4297c0 2.0625 0.15625 4.1016 0.44922 6.1406 1.0742 7.4688 4.668 14.562 9.8906 19.992 2.3438 2.4297 5.0703 4.5508 7.9883 6.2578 0.92969 0.54688 1.8672 1.0859 2.793 1.6328 3.8984 2.2656 7.7812 4.5312 11.68 6.7969 1.4766 0.85938 2.9609 1.7188 4.4336 2.5781 0.28125 0.16406 0.56641 0.34375 0.85938 0.49609 0.97656 0.51562 2.0234 0.51562 3.0078 0 0.097656-0.046875 0.1875-0.10938 0.28125-0.15625 3.1445-1.7891 6.2969-3.5742 9.4453-5.3594 3.3672-1.9141 6.7383-3.8281 10.109-5.7422 0.1875-0.10938 0.38281-0.21484 0.56641-0.32031 1.3359-0.76172 1.9062-2.6875 1.0547-4.0039-0.88281-1.3438-2.5938-1.8633-4.0195-1.0547z"/>
  <path d="m47.07 32.031v8.8086 13.965 3.2031c0 1.5312 1.3477 3 2.9297 2.9297 1.5938-0.070312 2.9297-1.2891 2.9297-2.9297v-8.8086-13.965-3.2031c0-1.5312-1.3477-3-2.9297-2.9297-1.5938 0.070313-2.9297 1.2891-2.9297 2.9297z"/>
  <path d="m47.07 66.309v1.6602c0 0.75 0.32031 1.543 0.85938 2.0703 0.50781 0.50781 1.3359 0.89063 2.0703 0.85938 1.5938-0.070313 2.9297-1.2891 2.9297-2.9297v-1.6602c0-0.75-0.32031-1.543-0.85938-2.0703-0.50781-0.50781-1.3359-0.89062-2.0703-0.85938-1.5938 0.070313-2.9297 1.2891-2.9297 2.9297z"/>
 </g>
</svg>
