<?xml version="1.0" encoding="UTF-8"?>
<svg width="38px" height="36px" viewBox="0 0 38 36" version="1.1" xmlns="http://www.w3.org/2000/svg" xmlns:xlink="http://www.w3.org/1999/xlink">
    <title>Artboard</title>
    <g id="Artboard" stroke="none" stroke-width="1" fill="none" fill-rule="evenodd">
        <g id="svg" transform="translate(3.000000, 2.000000)" fill="#FFFFFF" fill-rule="nonzero">
            <path d="M14.154396,-1.77635684e-15 C14.4219361,-1.77635684e-15 14.6780524,0.10959637 14.8642549,0.30376026 C15.1173585,0.52012059 15.2437873,0.85201732 15.1995869,1.18406327 L15.1995869,1.18406327 L15.1995869,4.463192 C15.1995869,4.6788662 15.1647472,4.9033435 15.4652396,4.9033435 L15.4652396,4.9033435 L22.5594731,4.9033435 C22.7869392,4.9151254 23.006854,4.9897214 23.1952976,5.1190177 C23.3618307,5.2733657 23.4952342,5.4606289 23.5872442,5.6692071 C24.6585649,7.5618586 25.7690802,9.4677146 26.836046,11.3911767 C27.0363742,11.7565025 27.1887979,11.7961161 27.5415498,11.5760403 C28.4343171,11.0214494 29.3575691,10.5108737 30.2721112,9.9870934 C30.9166456,9.6217677 31.5350502,9.7450101 31.8442525,10.2819949 C32.0039198,10.5509838 32.0429229,10.875891 31.9515323,11.1756656 C31.8601417,11.4754402 31.6469743,11.7218173 31.3652067,11.8533358 C30.4245348,12.4035252 29.488218,12.9537146 28.5431912,13.4818964 C28.2688285,13.6315479 28.1947942,13.7371842 28.3733476,14.0452903 C29.0919164,15.2557069 29.7669355,16.4969342 30.4811493,17.7117523 C30.7760048,18.1564806 30.7760048,18.7371301 30.4811493,19.1818584 C28.1294697,23.2400553 25.7821451,27.2982522 23.4391754,31.3564491 C23.3306775,31.6074882 23.124141,31.8018912 22.8686754,31.8934339 C22.6697299,31.9795163 22.4527428,32.0143029 22.2372059,31.9946687 L22.2372059,31.9946687 L8.22729239,31.9418506 C8.09573569,31.9344016 7.96480509,31.9182279 7.83534579,31.8934339 C7.56077349,31.824309 7.33185829,31.6333947 7.21258619,31.3740551 L7.21258619,31.3740551 L0.179322292,18.9969947 C-0.0597740975,18.6185374 -0.0597740975,18.1342248 0.179322292,17.7557675 L0.179322292,17.7557675 L7.24742589,5.4579344 C7.34300939,5.3175252 7.46243689,5.1953308 7.60017789,5.0970102 C7.76408739,4.9739349 7.95559689,4.8937903 8.15761299,4.8637299 L8.15761299,4.8637299 L13.0438806,4.8857374 C13.1483997,3.6533132 13.0700104,2.41648749 13.1092051,1.18406327 C13.0713942,0.85280649 13.1966969,0.52386577 13.4445372,0.30376026 C13.6307396,0.10959637 13.8868559,-1.77635684e-15 14.154396,-1.77635684e-15 Z M9.66007499,9.1067904 C9.43361699,8.9747449 9.34651769,8.9747449 9.20280399,9.2212298 C9.05909019,9.4677146 8.86311689,9.881457 8.68456349,10.1983661 L8.68456349,10.1983661 L6.16739529,14.5998812 C6.16535569,14.6130053 6.16535569,14.6263707 6.16739529,14.6394948 L6.16739529,14.6394948 L4.22072719,17.9802448 C4.09695439,18.2021303 4.11051229,18.4761867 4.25556689,18.6844872 C5.98013189,21.7362043 7.71340689,24.7864542 9.45539179,27.835237 C9.57722779,28.0928895 9.83940699,28.252225 10.121701,28.2401764 C13.579541,28.2548481 17.0344777,28.2724542 20.4865111,28.2929946 C20.8210253,28.3260462 21.142348,28.1523791 21.300889,27.8528431 C21.9236486,26.7172522 22.5856029,25.5904643 23.2301373,24.4592749 L23.2301373,24.4592749 L25.6384314,20.238222 C25.8256947,19.9301159 25.9998932,19.6264114 26.1828016,19.3095023 L26.1828016,19.3095023 C26.3613551,18.9925932 26.3047406,18.9177675 26.0086031,18.6888887 C22.7917377,16.8079746 19.576324,14.9255933 16.3623619,13.0417449 C14.1282662,11.7476994 11.8898157,10.4272449 9.66007499,9.1067904 Z" id="Shape"></path>
        </g>
    </g>
</svg>