<?xml version="1.0" encoding="UTF-8"?>
<svg width="38px" height="36px" viewBox="0 0 38 36" version="1.1" xmlns="http://www.w3.org/2000/svg" xmlns:xlink="http://www.w3.org/1999/xlink">
    <title>Artboard</title>
    <g id="Artboard" stroke="none" stroke-width="1" fill="none" fill-rule="evenodd">
        <rect fill="#398CFF" x="0" y="0" width="38" height="36"></rect>
        <g id="svg-2" transform="translate(6.000000, 5.000000)" fill="#FFFFFF" fill-rule="nonzero">
            <g id="svg">
                <path d="M11.5004468,0 C11.7178231,0 11.9259176,0.0890470507 12.0772071,0.246805211 C12.2828538,0.42259798 12.3855772,0.692264073 12.3496644,0.962051407 L12.3496644,0.962051407 L12.3496644,3.6263435 C12.3496644,3.80157879 12.3213571,3.9839666 12.5655072,3.9839666 L12.5655072,3.9839666 L18.3295719,3.9839666 C18.5143881,3.99353939 18.6930689,4.05414864 18.8461793,4.15920188 C18.9814875,4.28460963 19.0898778,4.43676098 19.1646359,4.60623077 C20.035084,6.14401012 20.9373777,7.69251812 21.8042874,9.25533107 C21.967054,9.55215829 22.0908983,9.58434434 22.3775092,9.40553275 C23.1028827,8.95492764 23.8530249,8.54008489 24.5960904,8.11451339 C25.1197746,7.81768626 25.6222283,7.91782071 25.8734552,8.35412086 C26.0031848,8.57267434 26.0348749,8.83666144 25.96062,9.08022831 C25.8863651,9.32379517 25.7131666,9.52397656 25.4842305,9.63083534 C24.7199345,10.0778642 23.9591771,10.5248931 23.1913429,10.9540408 C22.9684232,11.0756327 22.9082703,11.1614622 23.0533449,11.4117984 C23.6371821,12.3952619 24.1856351,13.403759 24.7659338,14.3907988 C25.0055039,14.7521405 25.0055039,15.2239182 24.7659338,15.58526 C22.8551941,18.8825449 20.9479929,22.1798299 19.04433,25.4771149 C18.9561755,25.6810842 18.7883646,25.8390366 18.5807988,25.9134151 C18.4191556,25.983357 18.2428535,26.0116211 18.0677298,25.9956683 L18.0677298,25.9956683 L6.68467507,25.9527536 C6.57778525,25.9467013 6.47140414,25.9335602 6.36621846,25.9134151 C6.14312847,25.8572511 5.95713487,25.7021332 5.86022629,25.4914198 L5.86022629,25.4914198 L0.145699363,15.4350582 C-0.0485664543,15.1275616 -0.0485664543,14.7340577 0.145699363,14.4265611 L0.145699363,14.4265611 L5.88853354,4.4345717 C5.96619514,4.32048923 6.06322998,4.22120628 6.17514454,4.14132079 C6.30832101,4.04132211 6.46392248,3.97620462 6.62806056,3.95178055 L6.62806056,3.95178055 L10.598153,3.96966164 C10.6830748,2.96831698 10.6193835,1.96339609 10.6512291,0.962051407 C10.6205078,0.692905274 10.7223162,0.425640938 10.9236865,0.246805211 C11.0749759,0.0890470507 11.2830704,0 11.5004468,0 Z M7.84881094,7.3992672 C7.66481381,7.29198024 7.59404563,7.29198024 7.47727825,7.49224922 C7.36051079,7.69251812 7.20128248,8.02868382 7.05620784,8.28617246 L7.05620784,8.28617246 L5.01100868,11.8624035 C5.0093515,11.8730668 5.0093515,11.8839262 5.01100868,11.8945895 L5.01100868,11.8945895 L3.42934085,14.6089489 C3.32877545,14.7892309 3.33979124,15.0119017 3.4576481,15.1811459 C4.85885717,17.660666 6.2671431,20.1389941 7.68250584,22.6161301 C7.78149759,22.8254727 7.99451819,22.9549328 8.22388206,22.9451433 C11.0333771,22.9570641 13.8405131,22.9713691 16.6452903,22.9880581 C16.9170831,23.0149126 17.1781578,22.873808 17.3069723,22.630435 C17.8129645,21.7077674 18.3508024,20.7922523 18.8744866,19.8731609 L18.8744866,19.8731609 L20.8312255,16.4435554 C20.983377,16.1932192 21.1249132,15.9464593 21.2735263,15.6889706 L21.2735263,15.6889706 C21.418601,15.431482 21.3726017,15.3706861 21.13199,15.1847221 C18.5182869,13.6564794 15.9057633,12.1270446 13.294419,10.5964177 C11.4792163,9.54500577 9.66047526,8.47213649 7.84881094,7.3992672 Z" id="Shape"></path>
            </g>
        </g>
    </g>
</svg>