<?xml version="1.0" encoding="UTF-8"?>
<svg width="76px" height="96px" viewBox="0 0 76 96" version="1.1" xmlns="http://www.w3.org/2000/svg" xmlns:xlink="http://www.w3.org/1999/xlink">
    <title>np_inspiration_3203252_FFFFFF</title>
    <g id="Page-1" stroke="none" stroke-width="1" fill="none" fill-rule="evenodd">
        <g id="np_inspiration_3203252_FFFFFF" transform="translate(0.496349, 0.500500)" fill="#FFFFFF" fill-rule="nonzero">
            <path d="M38.7026515,16.9995 C31.5034515,16.69872 24.7026515,19.1987 19.5036515,24.1987 C14.3046515,29.1987 11.5036515,35.8007 11.5036515,42.9997 C11.5036515,48.8981 13.4020515,54.4997 17.1052515,59.1017 C20.4060515,63.3009 22.7068515,67.3009 24.1052515,71.4997 L24.2068115,82.6017 C24.2068115,83.8009 25.2068115,84.8009 26.4060115,84.8009 L26.5036675,84.8009 C27.0036675,90.5001 31.7028675,94.9999 37.5036675,94.9999 C43.3044675,94.9999 48.0036675,90.4999 48.5036675,84.8009 L48.6052275,84.8009 C49.8044275,84.8009 50.8044275,83.8009 50.8044275,82.6017 L50.8044275,71.8007 L50.9059875,71.40226 C52.3043875,67.20306 54.6051875,63.20306 57.9059875,59.00426 C61.8043875,54.10586 63.7067875,48.00426 63.5075875,41.70326 C62.9021175,28.50026 52.0035875,17.60126 38.7025875,17.00026 L38.7026515,16.9995 Z M46.4018515,72.4995 L46.4018515,80.3003 L28.6048515,80.3003 L28.6048515,72.4995 L46.4018515,72.4995 Z M36.4018515,40.8975 L38.7026515,40.8975 L42.1010515,46.1983 C42.2026115,46.29986 42.2026115,46.39752 42.2026115,46.49908 L42.2026115,46.89752 L32.9018115,46.89752 L32.9018115,46.49908 C32.9018115,46.39752 32.9018115,46.29986 33.0033715,46.1983 L36.4018515,40.8975 Z M39.2026515,68.1005 L39.2026515,50.2995 L42.2026515,50.2995 L42.2026515,68.1005 L39.2026515,68.1005 Z M32.9018515,50.2995 L35.9018515,50.2995 L35.9018515,68.1005 L32.9018515,68.1005 L32.9018515,50.2995 Z M37.5034515,90.4985 C34.1050515,90.4985 31.4018515,87.9985 31.0034515,84.7993 L44.1054515,84.7993 C43.6054515,87.9985 40.9023515,90.4985 37.5038515,90.4985 L37.5034515,90.4985 Z M54.4014515,56.2995 C51.2998515,60.1979 49.1006515,64.1003 47.5030515,68.1005 L45.5030515,68.1005 L45.5030515,46.4985 C45.5030515,45.79928 45.3038315,44.9985 44.9014915,44.3969 L39.7022915,36.2953 C38.8038515,34.7953 36.3038915,34.7953 35.4014915,36.2953 L30.2022915,44.3969 C29.7022915,45.10002 29.5030715,45.7992 29.5030715,46.4985 L29.5030715,67.9985 L27.5030715,67.9985 C25.9014715,63.9985 23.7022715,60.1977 20.6046715,56.1975 C17.6046715,52.3967 16.0030715,47.7991 16.0030715,42.8965 C16.0030715,36.9981 18.4014715,31.3965 22.7022715,27.2945 C27.0030715,23.1925 32.7022715,21.0953 38.6002715,21.3961 C49.6002715,21.8961 58.6002715,30.8961 59.1002715,41.9981 C59.3033915,47.1973 57.6041715,52.1971 54.4010715,56.2991 L54.4014515,56.2995 Z" id="Shape"></path>
            <path d="M37.5036515,9.6015 C38.7028515,9.6015 39.7028515,8.6015 39.7028515,7.4023 L39.7028515,2.1992 C39.7028515,1 38.7028515,-8.8817842e-16 37.5036515,-8.8817842e-16 C36.3044515,-8.8817842e-16 35.3044515,1 35.3044515,2.1992 L35.3044515,7.3984 C35.3044515,8.6015 36.3044515,9.6015 37.5036515,9.6015 Z" id="Path"></path>
            <path d="M7.80465148,23.1985 L3.30465148,20.5969 C2.20305148,19.99534 0.906251475,20.29612 0.304651475,21.39768 C-0.296908525,22.49928 0.00387147536,23.79608 1.10543148,24.39768 L5.60543148,26.99928 C6.00387148,27.1985 6.30465148,27.30006 6.70703148,27.30006 C7.50781148,27.30006 8.20703148,26.90162 8.60543148,26.19846 C9.20309148,25.19846 8.90231148,23.80006 7.80465148,23.19846 L7.80465148,23.1985 Z" id="Path"></path>
            <path d="M68.3046515,27.39754 C68.7030915,27.39754 69.1054315,27.29594 69.4062515,27.09672 L73.9062515,24.49512 C75.0078515,23.89356 75.3046515,22.49512 74.7070315,21.49512 C74.1054715,20.39352 72.7070315,20.09672 71.7070315,20.69434 L67.2070315,23.29594 C66.1054315,23.8975 65.8086315,25.29594 66.4062515,26.29594 C66.8046915,26.99906 67.5039515,27.39754 68.3046515,27.39754 L68.3046515,27.39754 Z" id="Path"></path>
        </g>
    </g>
</svg>