<svg width="42" height="42" viewBox="0 0 42 42" fill="none" xmlns="http://www.w3.org/2000/svg">
<g clip-path="url(#clip0)">
<path d="M6.46038 34.119C1.1035 31.0262 -0.731897 24.1764 2.3609 18.8195C5.45369 13.4626 12.3035 11.6272 17.6604 14.72C23.0173 17.8128 24.8527 24.6626 21.7599 30.0195C16.1599 39.719 4.86038 36.8902 4.86038 36.8902L6.46038 34.119Z" fill="#9D50FF"/>
<path d="M28.2245 35.725C37.7381 32.997 43.2389 23.0733 40.5109 13.5598C37.7829 4.0462 27.8592 -1.4546 18.3457 1.27336C8.83213 4.00133 3.33133 13.925 6.05929 23.4386C10.9987 40.6644 29.6358 40.6466 29.6358 40.6466L28.2245 35.725Z" fill="#485BFF"/>
<mask id="mask0" style="mask-type:alpha" maskUnits="userSpaceOnUse" x="5" y="0" width="37" height="41">
<path d="M28.2245 35.725C37.7381 32.997 43.2389 23.0733 40.5109 13.5598C37.7829 4.0462 27.8592 -1.4546 18.3457 1.27336C8.83213 4.00133 3.33133 13.925 6.05929 23.4386C10.9987 40.6644 29.6358 40.6466 29.6358 40.6466L28.2245 35.725Z" fill="#C4C4C4"/>
</mask>
<g mask="url(#mask0)">
<path d="M6.46038 34.119C1.1035 31.0262 -0.731897 24.1764 2.3609 18.8195C5.45369 13.4626 12.3035 11.6272 17.6604 14.72C23.0173 17.8128 24.8527 24.6626 21.7599 30.0195C16.1599 39.719 4.86038 36.8902 4.86038 36.8902L6.46038 34.119Z" fill="#9D50FF"/>
<path fill-rule="evenodd" clip-rule="evenodd" d="M16.7633 12.5322C15.4531 14.1494 14.88 16.3205 14.8801 18.4C14.8801 20.4795 15.4531 22.6506 16.7633 24.2678C18.0277 25.8286 20.1099 27.04 23.5202 27.04C27.1157 27.04 28.9061 25.4568 29.8477 23.9515C30.5102 22.8924 30.7476 22.1184 30.8326 21.597C30.8895 21.2481 31.1666 20.96 31.5201 20.96H33.4401C33.7935 20.96 34.0842 21.2466 34.0541 21.5988C33.9747 22.5254 33.6684 23.8777 32.5606 25.6485C31.078 28.0187 28.2988 30.24 23.5202 30.24C19.2504 30.24 16.2124 28.6714 14.2769 26.2822C12.387 23.9494 11.6801 21.0005 11.6801 18.4C11.68 15.7995 12.387 12.8506 14.2768 10.5178C16.1142 8.24986 18.9448 6.72135 22.8795 6.57202C23.2327 6.55862 23.5202 6.84653 23.5202 7.2V9.12C23.5202 9.47346 23.2333 9.75818 22.8802 9.77472C19.8461 9.91683 17.9466 11.0715 16.7633 12.5322Z" fill="white"/>
<mask id="mask1" style="mask-type:alpha" maskUnits="userSpaceOnUse" x="0" y="13" width="24" height="25">
<path d="M6.4605 34.119C1.10363 31.0262 -0.731775 24.1764 2.36102 18.8195C5.45381 13.4626 12.3036 11.6272 17.6605 14.72C23.0174 17.8128 24.8528 24.6626 21.76 30.0195C16.16 39.719 4.8605 36.8902 4.8605 36.8902L6.4605 34.119Z" fill="#101D49"/>
</mask>
<g mask="url(#mask1)">
<path fill-rule="evenodd" clip-rule="evenodd" d="M16.7633 12.5322C15.4531 14.1494 14.88 16.3205 14.8801 18.4C14.8801 20.4795 15.4531 22.6506 16.7633 24.2678C18.0277 25.8286 20.1099 27.04 23.5202 27.04C27.1157 27.04 28.9061 25.4568 29.8477 23.9515C30.875 22.3092 30.8801 21.3524 30.8801 20.96H34.08C34.08 21.8476 33.9577 23.4153 32.5606 25.6485C31.078 28.0187 28.2988 30.24 23.5202 30.24C19.2504 30.24 16.2124 28.6714 14.2769 26.2822C12.387 23.9494 11.6801 21.0005 11.6801 18.4C11.68 15.7995 12.387 12.8506 14.2768 10.5178C16.2124 8.1286 19.2504 6.56 23.5202 6.56V9.76C20.1099 9.76 18.0277 10.9714 16.7633 12.5322Z" fill="#FFC5F6"/>
</g>
<path d="M35.04 14.56C35.04 15.9738 33.8939 17.12 32.48 17.12C31.0662 17.12 29.92 15.9738 29.92 14.56C29.92 13.1462 31.0662 12 32.48 12C33.8939 12 35.04 13.1462 35.04 14.56Z" fill="white"/>
</g>
</g>
<defs>
<clipPath id="clip0">
<rect width="40.96" height="40.96" fill="white" transform="translate(0.47998 0.479996)"/>
</clipPath>
</defs>
</svg>
