<?xml version="1.0" encoding="UTF-8"?> <svg xmlns="http://www.w3.org/2000/svg" width="109" height="111" viewBox="0 0 109 111" fill="none"><path fill-rule="evenodd" clip-rule="evenodd" d="M23.7188 27.8127C17.6053 35.359 14.9314 45.4894 14.9315 55.1925C14.9316 64.8957 17.6055 75.0261 23.7189 82.5724C29.6189 89.8551 39.3343 95.5076 55.2471 95.5076C72.0242 95.5076 80.3782 88.1201 84.772 81.0962C87.8633 76.1546 88.9708 72.543 89.3676 70.1101C89.633 68.4823 90.926 67.1378 92.5753 67.1378H101.534C103.184 67.1378 104.54 68.4752 104.399 70.1184C104.029 74.4422 102.6 80.7522 97.4308 89.0149C90.5125 100.075 77.5447 110.439 55.2471 110.439C35.3238 110.439 21.1486 103.12 12.1169 91.9715C3.29881 81.0867 9.61207e-05 67.3267 2.10046e-09 55.1926C-9.61165e-05 43.0584 3.29864 29.2984 12.1168 18.4136C20.6901 7.83107 33.8981 0.69886 52.2577 0.0020991C53.9058 -0.0604476 55.2471 1.283 55.2471 2.93229V11.8912C55.2471 13.5405 53.9085 14.869 52.261 14.9462C38.1036 15.6093 29.2404 20.9971 23.7188 27.8127Z" fill="#485BFF"></path><path d="M109 37.2747C109 43.8719 103.652 49.2199 97.0548 49.2199C90.4577 49.2199 85.1096 43.8719 85.1096 37.2747C85.1096 30.6776 90.4577 25.3295 97.0548 25.3295C103.652 25.3295 109 30.6776 109 37.2747Z" fill="#485BFF"></path></svg> 