<?xml version="1.0" encoding="UTF-8"?>
<svg width="23" height="19" viewBox="0 0 23 19" fill="none" xmlns="http://www.w3.org/2000/svg">
<path d="M14.65 9.37496C14.6778 9.55058 14.6083 9.72619 14.4655 9.82727C14.3872 9.88791 14.2899 9.91445 14.1926 9.91445C14.1181 9.91445 14.0448 9.89549 13.9804 9.86391L11.2727 8.44125L8.56513 9.86391C8.41225 9.94224 8.22273 9.9334 8.07996 9.82727C7.93718 9.72619 7.8677 9.55057 7.89549 9.37496L8.41353 6.36285L6.22395 4.22757C6.09886 4.10755 6.05338 3.92308 6.10897 3.75631C6.16456 3.58574 6.30733 3.46571 6.48294 3.44171L9.50517 2.99823L10.8596 0.257749C10.9354 0.101077 11.0971 0 11.2728 0C11.4484 0 11.6101 0.101077 11.6884 0.25901L13.0429 2.99949L16.0651 3.44297C16.2407 3.46571 16.3835 3.58574 16.4391 3.75757C16.4947 3.92435 16.4479 4.1088 16.3241 4.22883L14.1345 6.36411L14.65 9.37496Z" fill="#E4A300"/>
<path d="M22.411 13.3131L20.2214 15.4484L20.7395 18.4605C20.7673 18.6361 20.6978 18.8117 20.555 18.9128C20.4767 18.9734 20.3794 19 20.2821 19C20.2076 19 20.1343 18.981 20.0698 18.9494L17.3622 17.5268L14.6546 18.9494C14.5017 19.0278 14.3122 19.0139 14.1694 18.9128C14.0267 18.8117 13.9572 18.6361 13.985 18.4605L14.503 15.4484L12.3134 13.3131C12.1883 13.1931 12.1429 13.0086 12.1984 12.8418C12.254 12.6713 12.3968 12.5512 12.5724 12.5272L15.5946 12.0838L16.9491 9.34328C17.1058 9.02868 17.6238 9.02868 17.7804 9.34328L19.1298 12.0838L22.1558 12.5272C22.3315 12.55 22.4742 12.67 22.5298 12.8418C22.5816 13.0086 22.5361 13.1931 22.4111 13.3131H22.411Z" fill="#E4A300"/>
<path d="M10.3509 12.8418C10.4065 13.0086 10.3598 13.1931 10.236 13.3131L8.04639 15.4484L8.56442 18.4605C8.59222 18.6361 8.52273 18.8117 8.37996 18.9128C8.30162 18.9734 8.20433 19 8.10705 19C8.0325 19 7.95922 18.981 7.89479 18.9494L5.18717 17.5268L2.47956 18.9494C2.32668 19.0278 2.13716 19.0139 1.99439 18.9128C1.85162 18.8117 1.78212 18.6361 1.80992 18.4605L2.32795 15.4484L0.138375 13.3131C0.013291 13.1931 -0.0321922 13.0086 0.0233987 12.8418C0.0789929 12.6713 0.221763 12.5512 0.397369 12.5272L3.42338 12.0838L4.77278 9.34328C4.92945 9.02868 5.44746 9.02868 5.60413 9.34328L6.95857 12.0838L9.9808 12.5272C10.1526 12.5512 10.2954 12.6713 10.351 12.8418H10.3509Z" fill="#E4A300"/>
</svg>
