<?xml version="1.0" encoding="UTF-8"?>
<svg fill="#72B95C" width="100pt" height="100pt" version="1.1" viewBox="0 0 100 100" xmlns="http://www.w3.org/2000/svg">
 <path d="m75 87.93-5.4297-5.4297 3.9648-3.9648c0.96484-0.93359 1.5117-2.2109 1.5234-3.5547 0.011718-1.3398-0.51562-2.6289-1.4609-3.5781-0.94922-0.94922-2.2383-1.4766-3.582-1.4648-1.3398 0.011719-2.6211 0.5625-3.5508 1.5273l-3.9648 3.9648-5.4297-5.4297 12.93-12.93 17.926 17.93zm-57.816-13.668 8.5547 8.5547-12.832 4.2812 4.2773-12.832zm7.3867-36.762 3.9648-3.9648h0.003906c0.96094-0.92969 1.5117-2.2109 1.5234-3.5508 0.011719-1.3438-0.51562-2.6328-1.4648-3.5781-0.94922-0.94922-2.2383-1.4766-3.5781-1.4648-1.3438 0.011719-2.6211 0.5625-3.5547 1.5273l-3.9648 3.9648-5.4258-5.4336 12.926-12.926 17.93 17.926-12.93 12.93zm62.75-24.82c3.5664 3.5703 3.5664 9.3555 0 12.93l-2.3203 2.3242-12.93-12.93 2.3242-2.332v-0.003906c3.5703-3.5625 9.3555-3.5625 12.926 0zm-65.25 52.32 42.93-42.926 12.93 12.926-42.93 42.93zm76.461 6.4648-21.461-21.465 17.32-17.32c4.8359-4.8359 6.7266-11.883 4.957-18.488-1.7695-6.6055-6.9297-11.766-13.535-13.535s-13.652 0.11719-18.488 4.9531l-17.324 17.324-21.465-21.465c-1.9531-1.9531-5.1172-1.9531-7.0703 0l-20 20v-0.003906c-0.9375 0.94141-1.4648 2.2109-1.4648 3.5391 0 1.3242 0.52734 2.5977 1.4648 3.5352l21.469 21.461-11.465 11.465v0.003906c-0.54688 0.54688-0.96094 1.2148-1.2031 1.9531l-10 30v-0.003906c-0.59766 1.7969-0.12891 3.7734 1.2109 5.1094 1.3359 1.3398 3.3125 1.8086 5.1094 1.2109l30-10h-0.003907c0.73828-0.24219 1.4062-0.65625 1.9531-1.2031l11.465-11.465 21.465 21.465c1.9531 1.9492 5.1172 1.9492 7.0703 0l20-20c1.9492-1.9531 1.9492-5.1172 0-7.0703z"/>
</svg>
