<?xml version="1.0" encoding="UTF-8"?>
<svg width="100px" height="100px" viewBox="0 0 100 100" version="1.1" xmlns="http://www.w3.org/2000/svg" xmlns:xlink="http://www.w3.org/1999/xlink">
    <title>np_transfer_3096882_000000</title>
    <g id="Page-1" stroke="none" stroke-width="1" fill="none" fill-rule="evenodd">
        <g id="np_transfer_3096882_000000" fill="#72B95C" fill-rule="nonzero">
            <path d="M84.34,30.3399 L77.5392,30.3399 L77.5392,41.4809 L84.34,41.4809 C86.6603,41.4809 88.6212,43.0004 88.6212,44.8207 L88.6212,85.5197 C88.6212,87.3205 86.6603,88.8595 84.34,88.8595 L15.66,88.8595 C13.3397,88.8595 11.3788,87.34 11.3788,85.5197 L11.3788,44.8207 C11.3788,43.0199 13.3397,41.4809 15.66,41.4809 L22.4608,41.4809 L22.4608,30.3399 L15.66,30.3399 C7.0194,30.3399 0,36.8204 0,44.8199 L0,85.5189 C0,93.4994 7.0195,99.9989 15.66,99.9989 L84.34,99.9989 C92.9806,99.9989 100,93.4989 100,85.5189 L100,44.8199 C100,36.8199 92.9805,30.3399 84.34,30.3399 Z" id="Path"></path>
            <polygon id="Path" points="44.301 21.3399 44.301 78.2619 55.699 78.2619 55.699 21.3399 64.3006 29.7618 72.3592 21.879 50.0002 0 27.6412 21.879 35.6998 29.7618"></polygon>
        </g>
    </g>
</svg>