<?xml version="1.0" encoding="UTF-8"?>
<svg width="48px" height="46px" viewBox="0 0 48 46" version="1.1" xmlns="http://www.w3.org/2000/svg" xmlns:xlink="http://www.w3.org/1999/xlink">
    <title>np_rate_2889804_000000</title>
    <g id="Page-1" stroke="none" stroke-width="1" fill="none" fill-rule="evenodd">
        <g id="np_rate_2889804_000000" fill="#E4A300" fill-rule="nonzero">
            <path d="M47.9187179,17.5129636 C47.6972751,16.8371555 47.1121692,16.3454526 46.4082592,16.2452268 L32.0680912,14.1012304 L25.6531769,1.05099855 C25.3408213,0.407823472 24.6904624,0 23.9748563,0 C23.2592502,0 22.6088674,0.407817507 22.2965357,1.05099855 L15.8816214,14.1012304 L1.59694988,16.2452268 C0.897634713,16.3477674 0.3149218,16.8348169 0.0934729901,17.5059836 C-0.127969852,18.1771384 0.0515146766,18.9182126 0.55267941,19.4145688 L10.9209711,29.5379692 L8.44081609,43.9305106 C8.36622406,44.6132987 8.67158592,45.2798001 9.23566873,45.6713369 C9.79976944,46.0605113 10.5340474,46.1071222 11.1447472,45.7948473 L23.9745758,39.0463114 L36.8044045,45.7948473 C37.4151043,46.1071222 38.1493882,46.0605113 38.713483,45.6713369 C39.2775837,45.27983 39.5829276,44.6133584 39.5083356,43.9305106 L37.0281805,29.5379692 L47.4149711,19.4145688 C47.9301215,18.9275133 48.1259226,18.1910984 47.9184673,17.5129636 L47.9187179,17.5129636 Z" id="Path"></path>
        </g>
    </g>
</svg>