<?xml version="1.0" encoding="UTF-8"?>
<svg fill="#FFFFFF" width="100pt" height="100pt" version="1.1" viewBox="0 0 100 100" xmlns="http://www.w3.org/2000/svg">
 <path d="m10.559 0.066406c1.2227 0.13672 2.25 0.46484 3.2617 0.92187 1.0859 0.49609 2.1445 1.1484 3.3516 2.0078 1.8398 1.3164 4.2148 3.2695 7.2227 5.9258 3.3047 2.918 11.891 10.242 13.293 11.477 3.1914 2.8203 6.2656 5.7383 9.8008 9.3906l25.945-25.949c3.375-3.375 8.375-3.8516 11.164-1.0625l12.625 12.625c2.7891 2.7891 2.3125 7.7891-1.0625 11.164l-27.293 27.285c0.71484 0.83984 1.4453 1.6992 2.1992 2.5859 2.8594 3.375 3.8945 7.7734 3.1406 11.887 17.73-1.2617 32.055 29.484 22.996 26.383-9.707-3.3242-9.707 9.9727-22.652 3.3242-11.211-5.7578-10.227-10.918-10.449-18.539-4.4609 1.1914-9.3984-0.007813-12.895-3.5977-0.3125-0.32812-0.3125-0.32812-0.60938-0.67188l-1.4258-1.6719-16.352 16.355c-1.1055 1.1094-2.4414 1.9453-3.8633 2.4258l-21.773 7.3398c-1.375 0.46484-2.7617 0.20312-3.6484-0.68359l-2.5234-2.5234c-0.88672-0.88672-1.1484-2.2734-0.68359-3.6484l7.3398-21.773c0.48047-1.4219 1.3164-2.7578 2.4258-3.8633l18.168-18.176-19.961-23.434-0.375-0.47266c-2.4258-3.2461-4.2031-5.8086-5.3867-7.7773-0.76953-1.2773-1.3477-2.3906-1.7695-3.5195-0.38672-1.0273-0.64844-2.0586-0.73828-3.2656-0.19531-2.6367 0.49219-5.3867 2.7383-7.6914 2.3164-2.3789 5.1328-3.0781 7.7891-2.7773zm62.168 77.207c-2.25 2.25-4.543 9.0898 4.5469 13.637 9.0898 4.543 4.543 0 4.543-4.5469 0-3.0312 1.5156-4.5469 4.5469-4.5469-6.0586-6.0586-10.605-7.5742-13.637-4.543zm-57.758-4.5195-3.332 9.8828 5.7266 5.7266 9.8828-3.332-3.6602-8.6172zm63.516-63.863-12.227 12.227 3.0547-3.0586 12.629 12.629-3.0586 3.0547-5.0508-5.0508-46.273 46.273 3.0156 7.0898 60.535-60.539zm-12.227 12.227-48.312 48.309 7.0898 3.0156 46.273-46.273zm-3.957 39.305-6.5586 6.5586 1.7422 2.0469c0.03125 0.035156 0.0625 0.070312 0.09375 0.10938l0.10156 0.10547c1.6719 1.7148 4.3828 1.7148 6.0547 0l0.21094-0.21875c1.7031-1.75 1.7969-4.5508 0.21484-6.4141-0.63281-0.74609-1.2539-1.4766-1.8594-2.1875zm-43.879-44.371c-11.164-9.8594-12.242-8.75-3.2344 3.3242l19.645 23.062 6.0898-6.1016c-7.7383-8.0078-11.977-11.062-21.234-19.176z"/>
</svg>
