<?xml version="1.0" encoding="UTF-8"?>
<svg fill="#FFFFFF" width="100pt" height="100pt" version="1.1" viewBox="0 0 100 100" xmlns="http://www.w3.org/2000/svg">
 <path d="m88.965 45.445h-8.1133v-14.57c0-7.7773-6.3047-14.082-14.078-14.082h-51.93c-7.7773 0-14.082 6.3047-14.082 14.082v19.801c0 7.7773 6.3047 14.082 14.082 14.082h4.3984l7.4844 7.4844 7.4844-7.4844h13.102l0.003906 2.9219c0 5.6641 4.6055 10.27 10.27 10.27h18.949l5.25 5.2539 5.25-5.2539h1.9297c5.6641 0 10.273-4.6055 10.273-10.27l-0.003906-11.965c0-5.6602-4.6055-10.27-10.27-10.27zm-65.758 0.39453c-2.7969 0-5.0625-2.2656-5.0625-5.0625s2.2656-5.0625 5.0625-5.0625 5.0625 2.2656 5.0625 5.0625c-0.003906 2.7969-2.2695 5.0625-5.0625 5.0625zm35.203-10.121c2.7969 0 5.0625 2.2656 5.0625 5.0625s-2.2656 5.0625-5.0625 5.0625-5.0625-2.2656-5.0625-5.0625 2.2656-5.0625 5.0625-5.0625zm-17.602 10.121c-2.7969 0-5.0625-2.2656-5.0625-5.0625s2.2656-5.0625 5.0625-5.0625 5.0625 2.2656 5.0625 5.0625c-0.003906 2.793-2.2695 5.0625-5.0625 5.0625zm54.906 21.84c0 3.7227-3.0273 6.7539-6.7539 6.7539h-3.3867l-3.793 3.7969-3.793-3.7969h-20.402c-3.7227 0-6.75-3.0273-6.75-6.7539v-2.9219h-0.003907 15.941c7.7734 0 14.078-6.3047 14.078-14.078v-1.7109h8.1133c3.7227 0 6.7539 3.0273 6.7539 6.7461z"/>
</svg>
