<?xml version="1.0" encoding="UTF-8"?>
<svg fill="#FFFFFF" width="100pt" height="100pt" version="1.1" viewBox="0 0 100 100" xmlns="http://www.w3.org/2000/svg">
 <path d="m96 76.102-36.602-63.102c-4.1992-7.1992-14.699-7.1992-18.898 0l-36.5 63.102c-4.1992 7.3008 1 16.398 9.3984 16.398h73.199c8.4023 0 13.602-9.1016 9.4023-16.398zm-50.102-48.102c0-2.3008 1.8008-4.1016 4.1016-4.1016s4.1016 1.8008 4.1016 4.1016v30.199c0 2.3008-1.8008 4.1016-4.1016 4.1016s-4.1016-1.8008-4.1016-4.1016zm4.1016 52.898c-3.3984 0-6.1992-2.8008-6.1992-6.1992 0-3.3984 2.8008-6.1992 6.1992-6.1992s6.1992 2.8008 6.1992 6.1992c0 3.4023-2.8008 6.1992-6.1992 6.1992z"/>
</svg>
