<?xml version="1.0" encoding="UTF-8"?>
<svg fill="#FFFFFF" width="100pt" height="100pt" version="1.1" viewBox="0 0 100 100" xmlns="http://www.w3.org/2000/svg">
 <path d="m50 56.25c1.7266 0 3.125-1.3984 3.125-3.125s-1.3984-3.125-3.125-3.125c-4.9727 0-9.7422-1.9766-13.258-5.4922-3.5156-3.5156-5.4922-8.2852-5.4922-13.258s1.9766-9.7422 5.4922-13.258c3.5156-3.5156 8.2852-5.4922 13.258-5.4922s9.7422 1.9766 13.258 5.4922c3.5156 3.5156 5.4922 8.2852 5.4922 13.258v6.25c0 1.7266-1.3984 3.125-3.125 3.125s-3.125-1.3984-3.125-3.125v-6.25c0-5.0547-3.0469-9.6133-7.7148-11.547-4.6719-1.9375-10.051-0.86719-13.625 2.707-3.5742 3.5742-4.6445 8.9531-2.707 13.625 1.9336 4.668 6.4922 7.7148 11.547 7.7148 2.5625-0.007812 5.0625-0.80469 7.1562-2.2812 1.875 3.9492 6.2344 6.0781 10.504 5.1289 4.2695-0.94922 7.3164-4.7227 7.3398-9.0977v-6.25c0-6.6289-2.6328-12.988-7.3242-17.676-4.6875-4.6914-11.047-7.3242-17.676-7.3242s-12.988 2.6328-17.676 7.3242c-4.6914 4.6875-7.3242 11.047-7.3242 17.676s2.6328 12.988 7.3242 17.676c4.6875 4.6914 11.047 7.3242 17.676 7.3242zm0-18.75c-2.5273 0-4.8086-1.5234-5.7734-3.8594-0.96875-2.3359-0.43359-5.0234 1.3555-6.8086 1.7852-1.7891 4.4727-2.3242 6.8086-1.3555 2.3359 0.96484 3.8594 3.2461 3.8594 5.7734 0 1.6562-0.66016 3.2461-1.832 4.418s-2.7617 1.832-4.418 1.832zm43.75 6.25v40.625c0 5.1758-4.1992 9.375-9.375 9.375h-68.75c-5.1758 0-9.375-4.1992-9.375-9.375v-40.625c0.003906-0.96875 0.45312-1.8789 1.2188-2.4688l11.281-8.6875v8.0312l-4.25 3.125 35.5 27.312 35.5-27.312-4.25-3.125v-8.0312l11.281 8.6875c0.76562 0.58984 1.2148 1.5 1.2188 2.4688z"/>
</svg>
