<?xml version="1.0" encoding="UTF-8"?>
<svg width="80px" height="80px" viewBox="0 0 80 80" version="1.1" xmlns="http://www.w3.org/2000/svg" xmlns:xlink="http://www.w3.org/1999/xlink">
    <title>Artboard</title>
    <g id="Artboard" stroke="none" stroke-width="1" fill="none" fill-rule="evenodd">
        <g id="np_idea_2096680_FFFFFF" transform="translate(14.000000, 1.000000)" fill="#FFFFFF" fill-rule="nonzero">
            <path d="M19.8747468,71.5024237 C20.2680837,75.2126993 22.901153,78 26.0617791,78 C29.2224052,78 31.8553916,75.0821583 32.2488114,71.5024237 L19.8747468,71.5024237 Z" id="Path"></path>
            <path d="M39.8845429,61.8204347 L12.2397261,61.8204347 C10.2637424,61.8204347 8.68579864,60.2310325 8.68579864,58.2407001 C8.68579864,56.2503676 10.2637424,54.6609655 12.2397261,54.6609655 L39.7506783,54.6609655 C41.726662,54.6609655 43.3046058,56.2503676 43.3046058,58.2407001 C43.3046058,60.2310325 41.726662,61.8204347 39.8848983,61.8204347 L39.8845429,61.8204347 Z" id="Path"></path>
            <path d="M36.8530428,70.1731489 L15.2700415,70.1731489 C13.2940579,70.1731489 11.7161141,68.5837467 11.7161141,66.5934142 C11.7161141,64.6030818 13.2940579,63.0136796 15.2700415,63.0136796 L36.9869074,63.0136796 C38.9628911,63.0136796 40.5408349,64.6030818 40.5408349,66.5934142 C40.4066386,68.5837467 38.8286711,70.1731489 36.8526874,70.1731489 L36.8530428,70.1731489 Z" id="Path"></path>
            <path d="M24.6133167,0.0377946721 C10.9247729,0.834846453 0,12.5012374 0,26.289182 C0,33.7143869 3.02640614,40.3420269 7.89919604,45.1150064 C10.0046611,47.2357606 11.3235236,50.0185269 11.3235236,53.0715633 L11.3235236,53.6029272 L23.4341236,53.6029272 L23.4341236,40.3471698 L18.4317338,33.3182415 L33.4387847,33.3182415 L28.436395,40.3471698 L28.436395,53.6029272 L40.546995,53.6029272 L40.546995,53.2067341 C40.546995,50.2888924 41.6020731,47.3710507 43.8371025,45.3853719 C48.8394923,40.6123923 52,33.8490804 52,26.2934538 C51.9953728,11.1774277 39.6216708,-0.75502109 24.6146199,0.0372935092 L24.6133167,0.0377946721 Z" id="Path"></path>
        </g>
    </g>
</svg>