<?xml version="1.0" encoding="UTF-8"?>
<svg fill="#FFFFFF" width="100pt" height="100pt" version="1.1" viewBox="0 0 100 100" xmlns="http://www.w3.org/2000/svg">
 <g>
  <path d="m44.777 77.223c0.33203 3.1094 2.5547 5.4453 5.2227 5.4453s4.8906-2.4453 5.2227-5.4453z"/>
  <path d="m61.668 69.109h-23.336c-1.668 0-3-1.332-3-3s1.332-3 3-3h23.223c1.668 0 3 1.332 3 3s-1.332 3-2.8867 3z"/>
  <path d="m59.109 76.109h-18.219c-1.668 0-3-1.332-3-3s1.332-3 3-3h18.332c1.668 0 3 1.332 3 3-0.11328 1.668-1.4453 3-3.1133 3z"/>
  <path d="m48.777 17.332c-11.555 0.66797-20.777 10.445-20.777 22 0 6.2227 2.5547 11.777 6.668 15.777 1.7773 1.7773 2.8906 4.1094 2.8906 6.668v0.44531h10.223v-11.109l-4.2227-5.8906h12.668l-4.2227 5.8906v11.109h10.223v-0.33203c0-2.4453 0.89063-4.8906 2.7773-6.5547 4.2227-4 6.8906-9.668 6.8906-16-0.003906-12.668-10.449-22.668-23.117-22.004z"/>
 </g>
</svg>
