<?xml version="1.0" encoding="UTF-8"?>
<svg fill="#FFFFFF" width="100pt" height="100pt" version="1.1" viewBox="0 0 100 100" xmlns="http://www.w3.org/2000/svg">
 <g>
  <path d="m75.395 58.137l12.672-12.676c9.2461-9.2422 9.2461-24.285 0-33.527-9.2422-9.2461-24.285-9.2461-33.531 0l-18.289 18.289c-9.2461 9.2422-9.2461 24.285 0 33.527 1.3633 1.3672 2.8594 2.5234 4.4414 3.4844l9.7891-9.793c-1.8633-0.44531-3.6328-1.3867-5.0859-2.8398-4.2031-4.2031-4.2031-11.039 0-15.242l18.289-18.289c4.2031-4.2031 11.039-4.2031 15.242 0 4.2031 4.2031 4.2031 11.039 0 15.242l-5.3711 5.375c2.2148 5.2148 2.8242 10.949 1.8438 16.449z"/>
  <path d="m24.605 41.863l-12.672 12.672c-9.2461 9.2422-9.2461 24.285 0 33.531 9.2422 9.2461 24.285 9.2461 33.531 0l18.289-18.289c9.2461-9.2422 9.2422-24.285 0-33.527-1.3633-1.3672-2.8594-2.5234-4.4375-3.4844l-9.7891 9.793c1.8633 0.44531 3.6328 1.3867 5.0859 2.8398 4.2031 4.2031 4.2031 11.039 0 15.242l-18.289 18.289c-4.2031 4.2031-11.039 4.2031-15.242 0-4.2031-4.2031-4.2031-11.039 0-15.242l5.375-5.3711c-2.2227-5.2188-2.832-10.953-1.8516-16.453z"/>
 </g>
</svg>
