<?xml version="1.0" encoding="UTF-8"?>
<svg width="80px" height="80px" viewBox="0 0 80 80" version="1.1" xmlns="http://www.w3.org/2000/svg" xmlns:xlink="http://www.w3.org/1999/xlink">
    <title>Artboard</title>
    <g id="Artboard" stroke="none" stroke-width="1" fill="none" fill-rule="evenodd">
        <g id="np_ratings_2495925_FFFFFF" transform="translate(0.000000, 21.000000)" fill="#FFFFFF" fill-rule="nonzero">
            <path d="M48.8527573,24.5948071 C48.9256802,25.0555454 48.7433705,25.5162498 48.3688196,25.7814223 C48.1633088,25.9405259 47.9080813,26.0101326 47.6528538,26.0101326 C47.457288,26.0101326 47.26504,25.9604125 47.0959915,25.8775463 L39.9926771,22.1452748 L32.8893627,25.8775463 C32.4882861,26.0830571 31.9910854,26.0598492 31.6165346,25.7814223 C31.2419752,25.5162498 31.0596722,25.0555115 31.1325968,24.5948071 L32.4916378,16.6926658 L26.7473645,11.0908643 C26.4192124,10.7759751 26.299889,10.2920289 26.4457297,9.85452391 C26.5915788,9.40704845 26.9661297,9.09215077 27.4268256,9.02917124 L35.3555266,7.86572147 L38.9088385,0.676194188 C39.1077221,0.265172528 39.5319981,3.01466261e-15 39.992694,3.01466261e-15 C40.4533899,3.01466261e-15 40.8777339,0.265172528 41.0832532,0.679503541 L44.6365651,7.86903082 L52.5652661,9.03248059 C53.0260044,9.09214398 53.4005638,9.40703997 53.546362,9.85783326 C53.6922111,10.2953637 53.5695648,10.779276 53.2447272,11.0941737 L47.5004538,16.6959751 L48.8527573,24.5948071 Z" id="Path"></path>
            <path d="M79.6331358,22.8841261 L73.8888624,28.4859275 L75.2479034,36.3880689 C75.3208255,36.8488072 75.1385166,37.3095116 74.7639657,37.5746841 C74.5584549,37.7337876 74.3032274,37.8033944 74.0479999,37.8033944 C73.8524341,37.8033944 73.6601861,37.7536743 73.4911376,37.6708081 L66.3878232,33.9385366 L59.2845088,37.6708081 C58.8834322,37.8763189 58.3862316,37.8398566 58.0116807,37.5746841 C57.6371298,37.3095116 57.4548184,36.8487733 57.5277429,36.3880689 L58.886784,28.4859275 L53.1425106,22.8841261 C52.8143585,22.5692369 52.6950351,22.0852907 52.8408758,21.6477857 C52.9867249,21.2003102 53.3612758,20.8854126 53.8219717,20.822433 L61.7506727,19.6589832 L65.3039846,12.469456 C65.7150062,11.6441033 67.0739794,11.6441033 67.485018,12.469456 L71.0250925,19.6589832 L78.9637215,20.822433 C79.4244599,20.8820964 79.7990192,21.1969924 79.9448175,21.6477857 C80.0807216,22.0853161 79.9613905,22.5692284 79.6332376,22.8841261 L79.6331358,22.8841261 Z" id="Path"></path>
            <path d="M27.1552804,21.6477857 C27.3011296,22.0853161 27.1784832,22.5692284 26.8536456,22.8841261 L21.1093723,28.4859275 L22.4684133,36.3880689 C22.5413362,36.8488072 22.3590264,37.3095116 21.9844755,37.5746841 C21.7789647,37.7337876 21.5237372,37.8033944 21.2685097,37.8033944 C21.0729439,37.8033944 20.880696,37.7536743 20.7116474,37.6708081 L13.608333,33.9385366 L6.50501863,37.6708081 C6.103942,37.8763189 5.60674139,37.8398566 5.2321905,37.5746841 C4.85763961,37.3095116 4.67532819,36.8487733 4.74825276,36.3880689 L6.10729378,28.4859275 L0.363020422,22.8841261 C0.0348683586,22.5692369 -0.0844550361,22.0852907 0.0613856113,21.6477857 C0.207234744,21.2003102 0.581785636,20.8854126 1.04248154,20.822433 L8.9811106,19.6589832 L12.5211851,12.469456 C12.9322067,11.6441033 14.2911799,11.6441033 14.7022185,12.469456 L18.2555304,19.6589832 L26.1842314,20.822433 C26.6350247,20.8854117 27.009584,21.2003017 27.1553992,21.6477857 L27.1552804,21.6477857 Z" id="Path"></path>
        </g>
    </g>
</svg>