<?xml version="1.0" encoding="UTF-8"?>
<svg width="87px" height="87px" viewBox="0 0 87 87" version="1.1" xmlns="http://www.w3.org/2000/svg" xmlns:xlink="http://www.w3.org/1999/xlink">
    <title>Artboard</title>
    <g id="Artboard" stroke="none" stroke-width="1" fill="none" fill-rule="evenodd">
        <g id="np_ratings_2495925_FFFFFF" transform="translate(0.000000, 7.000000)" fill="#FFFFFF" fill-rule="nonzero">
            <path d="M55.6388623,33.4643876 C55.7388539,34.0912811 55.4888716,34.7181285 54.975289,35.0789296 C54.6934935,35.2954105 54.3435267,35.3901193 53.9935598,35.3901193 C53.7254009,35.3901193 53.4617912,35.3224688 53.2299927,35.2097187 L43.4899588,30.1314849 L33.749925,35.2097187 C33.1999705,35.4893425 32.5182111,35.4577651 32.0046287,35.0789296 C31.4910345,34.7181285 31.2410614,34.091235 31.3410553,33.4643876 L33.2045664,22.7125114 L25.3280438,15.0905425 C24.8780831,14.6620954 24.7144673,14.0036245 24.9144435,13.4083429 C25.1144311,12.7994952 25.6280137,12.3710365 26.2597179,12.2853448 L37.1315182,10.7023223 L42.0038041,0.920048866 C42.2765124,0.360801214 42.8582778,-5.34528473e-15 43.489982,-5.34528473e-15 C44.1216862,-5.34528473e-15 44.7035449,0.360801214 44.9853521,0.924551665 L49.8576379,10.7068251 L60.7294382,12.2898476 C61.3612006,12.3710273 61.8747948,12.7994837 62.0747126,13.4128457 C62.2747003,14.008162 62.1065282,14.6665867 61.6611123,15.0950453 L53.7845896,22.7170142 L55.6388623,33.4643876 Z" id="Path"></path>
            <path d="M86.4969574,48.7004232 L78.6204347,56.322392 L80.4839458,67.0742682 C80.5839362,67.7011618 80.3339551,68.3280091 79.8203725,68.6888103 C79.538577,68.905291 79.1886101,69 78.8386433,69 C78.5704843,69 78.3068747,68.9323494 78.0750761,68.8195993 L68.3350423,63.7413656 L58.5950085,68.8195993 C58.045054,69.0992231 57.3632947,69.0496115 56.8497121,68.6888103 C56.3361296,68.3280091 56.086145,67.7011156 56.1861387,67.0742682 L58.04965,56.322392 L50.1731273,48.7004232 C49.7231665,48.271976 49.5595508,47.6135052 49.759527,47.0182236 C49.9595146,46.4093758 50.4730972,45.9809173 51.1048014,45.8952254 L61.9766017,44.3122029 L66.8488875,34.5299296 C67.4124786,33.4069314 69.2758967,33.4069314 69.8395111,34.5299296 L74.6936458,44.3122029 L85.5790594,45.8952254 C86.2108219,45.9764051 86.724416,46.4048615 86.924334,47.0182236 C87.1106851,47.6135398 86.9470588,48.2719645 86.4970969,48.7004232 L86.4969574,48.7004232 Z" id="Path"></path>
            <path d="M37.2352024,47.0182236 C37.4351902,47.6135398 37.267018,48.2719645 36.8216021,48.7004232 L28.9450795,56.322392 L30.8085906,67.0742682 C30.9085822,67.7011618 30.6585998,68.3280091 30.1450172,68.6888103 C29.8632217,68.905291 29.5132549,69 29.163288,69 C28.895129,69 28.6315196,68.9323494 28.3997209,68.8195993 L18.659687,63.7413656 L8.91965326,68.8195993 C8.36969873,69.0992231 7.68793941,69.0496115 7.17435686,68.6888103 C6.66077431,68.3280091 6.41078968,67.7011156 6.51078354,67.0742682 L8.37429467,56.322392 L0.497772024,48.7004232 C0.0478113417,48.271976 -0.115804378,47.6135052 0.0841716833,47.0182236 C0.28415938,46.4093758 0.797741934,45.9809173 1.42944615,45.8952254 L12.3148598,44.3122029 L17.1689946,34.5299296 C17.7325856,33.4069314 19.5960037,33.4069314 20.1596181,34.5299296 L25.0319039,44.3122029 L35.9037042,45.8952254 C36.52183,45.980916 37.0354241,46.4093642 37.2353653,47.0182236 L37.2352024,47.0182236 Z" id="Path"></path>
        </g>
    </g>
</svg>