<?xml version="1.0" encoding="UTF-8"?>
<svg fill="#FFFFFF" width="100pt" height="100pt" version="1.1" viewBox="0 0 100 100" xmlns="http://www.w3.org/2000/svg">
 <g>
  <path d="m60.441 56.707c0.085938 0.54297-0.12891 1.0859-0.57031 1.3984-0.24219 0.1875-0.54297 0.26953-0.84375 0.26953-0.23047 0-0.45703-0.058594-0.65625-0.15625l-8.3711-4.3984-8.3711 4.3984c-0.47266 0.24219-1.0586 0.21484-1.5-0.11328-0.44141-0.3125-0.65625-0.85547-0.57031-1.3984l1.6016-9.3125-6.7695-6.6016c-0.38672-0.37109-0.52734-0.94141-0.35547-1.457 0.17188-0.52734 0.61328-0.89844 1.1562-0.97266l9.3438-1.3711 4.1875-8.4727c0.23438-0.48438 0.73438-0.79688 1.2773-0.79688s1.043 0.3125 1.2852 0.80078l4.1875 8.4727 9.3438 1.3711c0.54297 0.070312 0.98438 0.44141 1.1562 0.97266 0.17188 0.51562 0.027344 1.0859-0.35547 1.457l-6.7695 6.6016z"/>
  <path d="m96.715 54.691-6.7695 6.6016 1.6016 9.3125c0.085937 0.54297-0.12891 1.0859-0.57031 1.3984-0.24219 0.1875-0.54297 0.26953-0.84375 0.26953-0.23047 0-0.45703-0.058594-0.65625-0.15625l-8.3711-4.3984-8.3711 4.3984c-0.47266 0.24219-1.0586 0.19922-1.5-0.11328s-0.65625-0.85547-0.57031-1.3984l1.6016-9.3125-6.7695-6.6016c-0.38672-0.37109-0.52734-0.94141-0.35547-1.457 0.17188-0.52734 0.61328-0.89844 1.1562-0.97266l9.3438-1.3711 4.1875-8.4727c0.48438-0.97266 2.0859-0.97266 2.5703 0l4.1719 8.4727 9.3555 1.3711c0.54297 0.070312 0.98438 0.44141 1.1562 0.97266 0.16016 0.51562 0.019531 1.0859-0.36719 1.457z"/>
  <path d="m34.871 53.234c0.17188 0.51562 0.027344 1.0859-0.35547 1.457l-6.7695 6.6016 1.6016 9.3125c0.085938 0.54297-0.12891 1.0859-0.57031 1.3984-0.24219 0.1875-0.54297 0.26953-0.84375 0.26953-0.23047 0-0.45703-0.058594-0.65625-0.15625l-8.3711-4.3984-8.3711 4.3984c-0.47266 0.24219-1.0586 0.19922-1.5-0.11328s-0.65625-0.85547-0.57031-1.3984l1.6016-9.3125-6.7695-6.6016c-0.38672-0.37109-0.52734-0.94141-0.35547-1.457 0.17188-0.52734 0.61328-0.89844 1.1562-0.97266l9.3555-1.3711 4.1719-8.4727c0.48438-0.97266 2.0859-0.97266 2.5703 0l4.1875 8.4727 9.3438 1.3711c0.53125 0.074219 0.97266 0.44531 1.1445 0.97266z"/>
 </g>
</svg>
