<?xml version="1.0" encoding="UTF-8"?>
<svg fill="#FFFFFF" width="100pt" height="100pt" version="1.1" viewBox="0 0 100 100" xmlns="http://www.w3.org/2000/svg">
 <path d="m50 0c-13.234 0-25.926 5.2461-35.301 14.586-9.3711 9.3438-14.656 22.023-14.699 35.254 0 13.262 5.2695 25.98 14.645 35.355 9.3789 9.3789 22.094 14.648 35.355 14.648s25.98-5.2695 35.355-14.648c9.3789-9.375 14.645-22.094 14.645-35.355 0-13.262-5.2656-25.977-14.645-35.355-9.375-9.375-22.094-14.645-35.355-14.645zm-0.097656 18.75c1.6914-0.027344 3.3164 0.62891 4.5156 1.8242 1.1953 1.1953 1.8555 2.8203 1.832 4.5078v31.082c0.023438 1.6719-0.625 3.2852-1.8008 4.4766-1.1719 1.1875-2.7773 1.8594-4.4492 1.8594s-3.2734-0.67188-4.4492-1.8594c-1.1758-1.1914-1.8242-2.8047-1.8008-4.4766v-31.082c-0.046875-3.4453 2.707-6.2812 6.1523-6.332zm-0.046875 48.633c2.0703 0 4.0586 0.82031 5.5234 2.2852 1.4648 1.4688 2.2891 3.4531 2.2891 5.5273 0 2.0703-0.82422 4.0586-2.2891 5.5234s-3.4531 2.2891-5.5234 2.2891c-4.3164 0-7.8125-3.5-7.8125-7.8125 0-4.3164 3.4961-7.8125 7.8125-7.8125z"/>
</svg>
