<?xml version="1.0" encoding="UTF-8"?>
<svg fill="#FFFFFF" width="100pt" height="100pt" version="1.1" viewBox="0 0 100 100" xmlns="http://www.w3.org/2000/svg">
 <g>
  <path d="m90 45.129c-1.0781-0.035156-2.1523 0.13281-3.1719 0.49219-1.6992-4.3359-6.5273-6.543-10.918-5-1.0898-2.7383-3.4961-4.7383-6.3906-5.3008-1.7305-0.32422-3.5156-0.12109-5.1289 0.57813l-0.5-18.738c-0.10547-4.1992-3.207-7.7148-7.3594-8.3398-2.375-0.29687-4.7617 0.42188-6.5781 1.9805-1.8125 1.5586-2.8867 3.8086-2.9531 6.1992l-1.3008 44.25c-0.52344-0.30859-0.98438-0.71094-1.3594-1.1914l-3.4219-5.8594h0.003906c-2.7891-4.7109-8.125-7.3008-13.551-6.5781-1.8984 0.25-3.5508 1.4141-4.4336 3.1133-0.88281 1.6953-0.88281 3.7188 0.003906 5.4141l13.059 25.301c1.168 2.2227 2.9414 4.0625 5.1211 5.3125l0.28906 0.14062 6.5898 2.707 0.19141 0.070313c1.2031 0.39453 2.1523 1.3242 2.5703 2.5195l0.67969 2c0.44922 1.3086 1.8711 2 3.1797 1.5508 0.625-0.21484 1.1406-0.67188 1.4336-1.2695 0.28906-0.59766 0.33203-1.2852 0.11719-1.9102l-0.67969-2h-0.003907c-0.92969-2.6289-3.0156-4.6797-5.6602-5.5703l-6.3203-2.6211h0.003907c-1.2773-0.77344-2.3125-1.8867-3-3.207l-13.141-25.352c-0.12891-0.24609-0.13281-0.54297-0.007813-0.78906 0.125-0.25 0.36328-0.42578 0.63672-0.47266 3.4336-0.45703 6.8125 1.1797 8.5781 4.1602l3.5 6c0.050781 0.085938 0.10156 0.17188 0.16016 0.25 2.2109 2.9297 6.1016 4.8086 9.2383 2.7305h0.003907c0.67578-0.44531 1.0938-1.1914 1.1211-2l1.3984-46.551c0.027344-0.99609 0.48438-1.9297 1.25-2.5703 0.76172-0.63672 1.7656-0.91797 2.75-0.76953 1.7188 0.29688 2.9805 1.7773 3 3.5195l0.64844 24.43v0.003907c0.035156 1.1875 0.90625 2.1875 2.0781 2.3906 1.1719 0.19922 2.3242-0.45312 2.7539-1.5625 0.64844-1.7031 2.4336-2.6875 4.2188-2.3281 1.7891 0.41797 3.0391 2.0312 3 3.8672v0.67188c0.035156 1.0039 0.66406 1.8906 1.6055 2.25 0.9375 0.35938 2 0.125 2.6953-0.60156 0.83203-0.96484 2.1016-1.4375 3.3594-1.25 1.8867 0.33594 3.2461 2.0039 3.1914 3.9219v0.64844c-0.003906 1.0469 0.64453 1.9805 1.625 2.3477 0.97656 0.36328 2.082 0.082031 2.7656-0.70703 0.73047-0.85547 1.8125-1.332 2.9375-1.2891 2.0742 0.16406 3.6602 1.918 3.6094 4v20c0 6.1406-3.9219 10.82-5.6094 12.539-1.0508 1.0664-1.8555 2.3477-2.3594 3.7617l-0.73047 2.0703v-0.003907c-0.25781 0.63672-0.24609 1.3477 0.035157 1.9727s0.80469 1.1055 1.4492 1.332c0.64453 0.22656 1.3555 0.17969 1.9648-0.12891 0.60938-0.3125 1.0664-0.85937 1.2617-1.5156l0.73047-2.0703c0.26172-0.72266 0.67578-1.3828 1.2188-1.9297 2.6289-2.6914 7-8.3516 7-16v-20c0.019531-4.7695-3.6875-8.7266-8.4492-9.0195z"/>
  <path d="m8.2383 39.531c-0.16016 0.9375 0.22266 1.8906 0.99609 2.4492 0.76953 0.5625 1.793 0.63281 2.6367 0.19141l9.6719-5.1094 9.6719 5.1094h-0.003906c0.84375 0.44141 1.8672 0.37109 2.6367-0.19141 0.76953-0.55859 1.1562-1.5117 0.99219-2.4492l-1.8398-10.781 7.8516-7.6211c0.68359-0.66406 0.92969-1.6602 0.63672-2.5664-0.29688-0.91016-1.082-1.5703-2.0273-1.7031l-10.852-1.5508-4.8203-9.8203c-0.41797-0.85547-1.2891-1.3984-2.2422-1.3984-0.95703 0-1.8281 0.54297-2.2461 1.3984l-4.8203 9.8203-10.832 1.5508c-0.94531 0.13281-1.7305 0.79297-2.0234 1.7031-0.29688 0.90625-0.050781 1.9023 0.63672 2.5664l7.8516 7.6211zm1.1602-18.441l7.1016-1c0.81641-0.11719 1.5234-0.62891 1.8906-1.3711l3.1602-6.4414 3.1484 6.4219c0.36719 0.74219 1.0742 1.2539 1.8906 1.3711l7.1016 1-5.1406 5c-0.59375 0.57422-0.86328 1.4062-0.72266 2.2188l1.1719 7.082-6.2891-3.3711c-0.73438-0.38672-1.6094-0.38672-2.3398 0l-6.3711 3.3711 1.2305-7.0586v-0.003906c0.14062-0.8125-0.12891-1.6445-0.71875-2.2188z"/>
 </g>
</svg>
