<?xml version="1.0" encoding="UTF-8"?>
<svg fill="#FFFFFF" width="100pt" height="100pt" version="1.1" viewBox="0 0 100 100" xmlns="http://www.w3.org/2000/svg">
 <path d="m66.289 76.707c-0.26562 0-0.52734-0.066406-0.77344-0.1875l-15.512-8.1562-15.512 8.1562c-0.55078 0.29688-1.2344 0.24219-1.7422-0.12109-0.50781-0.375-0.76172-0.99219-0.66016-1.6211l2.9648-17.273-12.555-12.238c-0.45312-0.44141-0.61719-1.0898-0.41797-1.6992 0.19922-0.59375 0.71484-1.0352 1.332-1.125l17.34-2.5234 7.7617-15.719c0.27734-0.5625 0.84766-0.92578 1.4766-0.92578 0.62891 0 1.2031 0.35156 1.4766 0.92578l7.7617 15.719 17.352 2.5234c0.61719 0.089844 1.1367 0.52734 1.332 1.125 0.19922 0.59375 0.03125 1.2578-0.41797 1.6992l-12.555 12.238 2.9648 17.273c0.10938 0.61719-0.14453 1.2461-0.66016 1.6211-0.27344 0.20703-0.61719 0.30859-0.95703 0.30859zm-16.293-11.863c0.26562 0 0.52734 0.066406 0.77344 0.1875l13.316 7-2.5469-14.828c-0.089843-0.53906 0.089844-1.082 0.47266-1.4648l10.77-10.508-14.895-2.1602c-0.53906-0.078124-1.0039-0.41797-1.2461-0.90234l-6.6602-13.492-6.6602 13.492c-0.24219 0.48438-0.70703 0.82812-1.2461 0.90234l-14.895 2.1602 10.77 10.508c0.38672 0.375 0.5625 0.92578 0.47266 1.4648l-2.5469 14.828 13.316-7c0.27344-0.12109 0.53906-0.1875 0.80469-0.1875z"/>
</svg>
