<?xml version="1.0" encoding="UTF-8"?>
<svg fill="#fff" width="100pt" height="100pt" version="1.1" viewBox="0 0 100 100" xmlns="http://www.w3.org/2000/svg">
 <g fill-rule="evenodd">
  <path d="m37.113 10.258c0.23047 0.007813 0.46094 0.050782 0.67578 0.13672 0.21484 0.082031 0.41406 0.20703 0.58984 0.35547 0.17578 0.15234 0.32031 0.33594 0.43359 0.53516 0.11328 0.20312 0.1875 0.42188 0.22656 0.65234 0.035157 0.22656 0.035157 0.46094-0.007812 0.6875s-0.125 0.44531-0.24219 0.64453c-0.23437 0.39844-0.60937 0.71094-1.0469 0.86719-11.129 4.1914-19.055 14.938-19.055 27.559 0 8.5508 3.6406 16.227 9.4492 21.613 0.23828 0.22266 0.42188 0.50391 0.53125 0.8125 0.10547 0.30859 0.13672 0.64062 0.085937 0.96484l-2.5391 16.262 31.184 8.1406 1.4961-11.461c0.035157-0.27344 0.12891-0.54297 0.27344-0.78125 0.14453-0.23828 0.33984-0.44531 0.56641-0.60156 0.22656-0.16016 0.48828-0.26953 0.76172-0.32031 0.27344-0.054688 0.55469-0.046875 0.82812 0.011719l9.3242 2.125 1.5977-9.7578c0.039062-0.23047 0.11719-0.45703 0.23438-0.66016 0.11719-0.20312 0.26562-0.38672 0.44531-0.53906 0.17969-0.15234 0.38672-0.27344 0.60547-0.35156 0.21875-0.082032 0.45703-0.12109 0.69141-0.12109h6.6367l-3.7539-17.828c-0.03125-0.15625-0.046875-0.32031-0.042969-0.48047l0.34375-10.246c-1.1758-10.816-8.2109-19.871-17.863-23.934-0.24609-0.097657-0.46875-0.24609-0.65625-0.43359s-0.33984-0.41016-0.44141-0.65234c-0.10156-0.24219-0.15234-0.50781-0.15234-0.77344s0.054687-0.52734 0.15625-0.77344c0.10156-0.24219 0.25391-0.46484 0.44141-0.65234 0.1875-0.18359 0.41406-0.33203 0.66016-0.42969 0.24609-0.097656 0.51172-0.14453 0.77344-0.14062 0.26562 0.003906 0.52734 0.0625 0.76953 0.16797 11.012 4.6367 19.016 14.988 20.305 27.336 0.007812 0.089844 0.011718 0.18359 0.007812 0.27344l-0.34375 10.148 4.2109 20.004c0.0625 0.28906 0.054687 0.59375-0.011719 0.88281-0.070313 0.28906-0.20312 0.55859-0.39062 0.78906-0.1875 0.23047-0.42578 0.41797-0.69141 0.54688-0.26953 0.12891-0.5625 0.19531-0.85938 0.19531h-7.4023l-1.6641 10.184c-0.042968 0.26953-0.14453 0.52734-0.28906 0.75781-0.14844 0.23047-0.33984 0.42578-0.56641 0.57812-0.22656 0.15234-0.48438 0.25781-0.75 0.30859-0.26563 0.050781-0.54688 0.042969-0.8125-0.015625l-9.2578-2.1094-1.5039 11.531c-0.035157 0.28125-0.13281 0.55078-0.28125 0.79297-0.14844 0.24219-0.34766 0.44922-0.58203 0.60547-0.23438 0.15625-0.50391 0.26563-0.78125 0.3125-0.27734 0.046876-0.56641 0.035157-0.83984-0.035156l-35.129-9.1719c-0.23828-0.0625-0.46094-0.16797-0.66016-0.3125s-0.37109-0.32422-0.50391-0.52734c-0.13281-0.20313-0.23047-0.43359-0.28125-0.67578-0.050781-0.23828-0.058594-0.48828-0.019531-0.73047l2.6602-17.02c-6.1367-6.0664-9.9531-14.5-9.9531-23.801 0-14.297 8.9922-26.535 21.645-31.301 0.25-0.097656 0.51562-0.14453 0.78125-0.13672z"/>
  <path d="m53.855 6c0.26172 0 0.52344 0.050781 0.76562 0.15234 0.24219 0.10156 0.46484 0.25 0.64844 0.43359 0.18359 0.18359 0.33203 0.40625 0.43359 0.64844s0.15234 0.50391 0.15234 0.76562v29.48c4.0977 2.2969 6.8789 6.6797 6.8789 11.688 0 4.2266-1.9766 8.0078-5.0547 10.465l4.6641 8.0742c0.13672 0.22656 0.22266 0.48047 0.26172 0.74219 0.035156 0.26172 0.023437 0.53125-0.046875 0.78516-0.066406 0.25391-0.18359 0.49609-0.34375 0.70703-0.16016 0.21094-0.36328 0.38672-0.58984 0.51953-0.22656 0.13281-0.48438 0.21875-0.74609 0.25-0.26172 0.035156-0.53125 0.015624-0.78516-0.054688s-0.49609-0.19141-0.70312-0.35156c-0.20703-0.16406-0.38281-0.36719-0.51172-0.59766l-4.6602-8.0664c-1.5156 0.59766-3.1641 0.92578-4.8867 0.92578-7.3789 0-13.398-6.0195-13.398-13.398 0-5.0078 2.7812-9.3945 6.8789-11.688v-29.48c0-0.26172 0.050781-0.52344 0.15234-0.76562 0.10156-0.24219 0.25-0.46484 0.43359-0.64844 0.18359-0.18359 0.40625-0.33203 0.64844-0.43359 0.24219-0.10156 0.50391-0.15234 0.76562-0.15234zm-2 4h-5.0391v26.02c0.81641-0.15625 1.6602-0.23828 2.5195-0.23828 0.85937 0 1.7031 0.082031 2.5195 0.23828zm-2.5195 29.781c-5.2188 0-9.3984 4.1797-9.3984 9.3906 0 5.2188 4.1797 9.3984 9.3984 9.3984 5.207 0 9.3984-4.1797 9.3984-9.3984 0-5.207-4.1914-9.3906-9.3984-9.3906z"/>
 </g>
</svg>
