<svg fill="#086EFB" xmlns="http://www.w3.org/2000/svg" data-name="Layer 1" viewBox="0 0 64 64" x="0px" y="0px"><title>Unicorn</title><path d="M61.94434,43.50293a5.4508,5.4508,0,0,0-2.64258-4.22949L40.45483,26.60828,47.51563,1.26855A.9998.9998,0,0,0,45.7373.4209L32.03772,19.72925,30.5459,11.959a2.28528,2.28528,0,0,0-4.19336-.76172l-2.88379,4.71484c-4.41016-1.40039-7.27637.1582-8.93359,1.77441a13.28081,13.28081,0,0,0-3.36548,6.551C6.514,26.6507,4.767,31.56677,4.91858,36.37622,3.30847,38.80267-.53656,45.96,4.6543,52.67676c1.85449,2.40137-1.0918,5.64258-1.12012,5.67383a.999.999,0,0,0,.93066,1.66113c2.46191-.5,6.79395-3.07324,5.56641-9.22852a.99973.99973,0,0,0-1.96094.39063c.51563,2.58887-.18164,4.22949-1.13574,5.25586a5.18917,5.18917,0,0,0-.69824-4.97559c-3.298-4.26752-2.23041-8.8125-.90326-11.707.09515.44269.20148.88013.32611,1.30664,1.35547,4.6377,4.15137,7.59863,7.08691,7.59863a4.3128,4.3128,0,0,0,.58105-.03906.99992.99992,0,0,0,.3916-1.84277c-.03223-.01953-3.23047-2.06543-1.61035-7.4248a.99973.99973,0,0,0-1.91406-.57812,9.66763,9.66763,0,0,0,.05762,6.66406A11.59314,11.59314,0,0,1,7.5791,40.49316c-1.363-4.66357-.8288-10.55707,3.16333-13.6333a18.71443,18.71443,0,0,0,.81519,7.769c1.0625,2.998,2.91406,4.76465,5.21387,4.97656.03125.00293.06152.00391.0918.00391a1.00041,1.00041,0,0,0,.97754-1.21c-.64551-3.00684-1.48535-11.292,2.3291-13.49219a1.00418,1.00418,0,0,0,.35352-.34473l7.53613-12.32227a.2843.2843,0,0,1,.52148.0957l1.83984,9.583.0011.00269a.99752.99752,0,0,0,.41949.63464l.00421.00427L58.24121,40.96777a3.43813,3.43813,0,0,1,1.71094,2.709,3.39086,3.39086,0,0,1-1.19531,2.92383c-2.9043,2.45117-5.792,3.51855-8.57227,3.19141a11.14728,11.14728,0,0,1-6.87207-4.1084,1.00015,1.00015,0,0,0-1.62109,1.17188,13.61787,13.61787,0,0,0,5.92554,4.36261,2.31991,2.31991,0,0,1-2.85522.64423L38.2002,48.56543l-.3418.07129c-3.542.73633-6.32422.30664-8.28027-1.27734-3.19043-2.584-3.24512-7.47949-3.24512-7.52832a1.00068,1.00068,0,0,0-1-.99707h-.002a.9988.9988,0,0,0-.998.999c0,.23828.04492,5.876,3.97461,9.07031a9.906,9.906,0,0,0,6.53516,2.07556V63a1,1,0,0,0,2,0V50.82819c.35516-.04761.7099-.09442,1.07813-.1651l5.94238,2.98633a4.32159,4.32159,0,0,0,5.542-1.47754l.28925-.43579c.07715.01117.15027.02881.22833.03833a10.2581,10.2581,0,0,0,1.27051.07715c2.94922,0,5.92188-1.248,8.85352-3.72266A5.36648,5.36648,0,0,0,61.94434,43.50293ZM18.94336,23.3125c-4.3418,2.76953-3.82812,10.38477-3.34668,13.8125a6.42327,6.42327,0,0,1-2.1543-3.165c-1.54687-4.36328-.90527-11.53223,2.48926-14.8418a5.90958,5.90958,0,0,1,4.26758-1.748,8.40741,8.40741,0,0,1,2.18945.30957ZM33.111,21.67322l2.25354-3.17609,4.41,3.10406-1.06787,3.8324Zm5.8382-8.22821,2.59,1.82318L40.34406,19.5575,36.5213,16.86682Zm3.15948-.22052L40.106,11.8147l3.94482-5.55981Z"></path><path d="M35.62012,35.3418a.75249.75249,0,1,1,1.50488,0,1,1,0,1,0,2,0,2.75245,2.75245,0,1,0-5.50488,0,1,1,0,1,0,2,0Z"></path><circle cx="54.70996" cy="44.03894" r="1"></circle></svg>